<?xml version="1.0" encoding="UTF-8"?> <!-- Generator: Adobe Illustrator 23.0.6, SVG Export Plug-In . SVG Version: 6.00 Build 0) --> <svg xmlns="http://www.w3.org/2000/svg" xmlns:xlink="http://www.w3.org/1999/xlink" id="Слой_1" x="0px" y="0px" viewBox="0 0 396.8 162" style="enable-background:new 0 0 396.8 162;" xml:space="preserve"> <style type="text/css"> .st0{fill:#FFFFFF;} .st1{clip-path:url(#SVGID_3_);} </style> <g> <g> <g> <path class="st0" d="M188.74,64.73h11.41l2.97,8.23h7.64l-13.38-37.42h-5.36l-13.38,37.42h7.27L188.74,64.73z M193.3,50.67 l1.11-5.89h0.27l1.11,5.84l2.76,8.28h-7.96L193.3,50.67z M213.26,65.63c0,2.87,0.57,4.93,1.72,6.18 c1.15,1.26,2.95,1.88,5.39,1.88c1.31,0,2.6-0.16,3.87-0.48c1.27-0.32,2.39-0.71,3.34-1.17l-1.22-5.31 c-0.64,0.28-1.21,0.5-1.72,0.64c-0.51,0.14-1.12,0.21-1.83,0.21c-1.03,0-1.72-0.4-2.1-1.19c-0.37-0.8-0.56-2.11-0.56-3.95V52.26 h6.48v-5.84h-6.48v-6.95l-6.9,1.96v4.99h-3.66v5.84h3.66V65.63z M233.93,71.82c1.15,1.26,2.95,1.88,5.39,1.88 c1.31,0,2.6-0.16,3.87-0.48c1.27-0.32,2.39-0.71,3.34-1.17l-1.22-5.31c-0.64,0.28-1.21,0.5-1.73,0.64 c-0.51,0.14-1.12,0.21-1.83,0.21c-1.03,0-1.72-0.4-2.1-1.19c-0.37-0.8-0.56-2.11-0.56-3.95V52.26h6.48v-5.84h-6.48v-6.95 l-6.9,1.96v4.99h-3.66v5.84h3.66v13.38C232.21,68.5,232.78,70.56,233.93,71.82z M264.48,52.9l0.9-6.48 c-1.17-0.39-2.21-0.58-3.13-0.58c-1.38,0-2.58,0.35-3.61,1.06c-1.03,0.71-1.84,1.72-2.44,3.03h-0.21l-0.8-3.5h-5.36v26.54h6.9 V55.81c0.28-1.03,0.84-1.87,1.67-2.52c0.83-0.65,1.87-0.98,3.1-0.98C262.39,52.31,263.38,52.51,264.48,52.9z M268.88,71.23 c0.71,0.69,1.56,1.22,2.55,1.59c0.99,0.37,2.1,0.56,3.34,0.56c1.98,0,3.6-0.4,4.86-1.19c1.26-0.8,2.24-1.74,2.95-2.84h0.27 l1.11,3.66h5.63c-0.42-1.27-0.69-2.63-0.8-4.06c-0.11-1.43-0.15-2.91-0.13-4.43c0.02-1.52,0.08-3.07,0.19-4.64 c0.11-1.57,0.16-3.14,0.16-4.7c0-1.41-0.15-2.69-0.45-3.82c-0.3-1.13-0.81-2.1-1.54-2.92c-0.73-0.81-1.71-1.44-2.95-1.88 c-1.24-0.44-2.78-0.66-4.62-0.66c-2.12,0-4.16,0.19-6.1,0.56c-1.95,0.37-3.63,0.88-5.04,1.51l1.65,5.15 c0.99-0.46,2.26-0.83,3.79-1.11c1.54-0.28,3-0.42,4.38-0.42c1.84,0,3.03,0.43,3.56,1.3c0.53,0.87,0.67,2.29,0.42,4.27 c-2.34-0.11-4.45-0.03-6.34,0.24c-1.89,0.27-3.52,0.74-4.88,1.43c-1.36,0.69-2.41,1.59-3.13,2.71c-0.73,1.11-1.09,2.49-1.09,4.11 c0,1.17,0.19,2.22,0.58,3.16C267.62,69.73,268.17,70.54,268.88,71.23z M274.45,62.82c0.46-0.46,1.08-0.81,1.86-1.06 c0.78-0.25,1.67-0.41,2.68-0.48c1.01-0.07,2.06-0.05,3.16,0.05v3.45c-0.39,0.71-0.99,1.37-1.8,1.99 c-0.81,0.62-1.91,0.93-3.29,0.93c-1.03,0-1.83-0.27-2.41-0.82c-0.58-0.55-0.88-1.32-0.88-2.31 C273.76,63.86,273.99,63.28,274.45,62.82z M309.27,67.15c-0.81,0.3-1.8,0.45-2.97,0.45c-1.06,0-1.99-0.2-2.79-0.61 c-0.8-0.41-1.44-0.96-1.94-1.67c-0.5-0.71-0.87-1.54-1.11-2.49c-0.25-0.96-0.37-2-0.37-3.13c0-2.76,0.5-4.77,1.49-6.02 c0.99-1.26,2.44-1.88,4.35-1.88c1.03,0,1.94,0.11,2.73,0.32c0.8,0.21,1.6,0.51,2.41,0.9l1.65-5.63c-0.96-0.5-2.03-0.9-3.21-1.22 c-1.19-0.32-2.75-0.48-4.7-0.48c-3.86,0-6.79,1.21-8.81,3.64c-2.02,2.42-3.03,5.88-3.03,10.38c0,2.09,0.2,4,0.61,5.73 c0.41,1.73,1.07,3.21,1.99,4.43c0.92,1.22,2.11,2.17,3.58,2.84c1.47,0.67,3.26,1.01,5.39,1.01c1.59,0,3.14-0.2,4.64-0.61 c1.5-0.41,2.79-1,3.85-1.78l-1.59-5.25C310.81,66.48,310.08,66.85,309.27,67.15z M329.52,67.39c-0.51,0.14-1.12,0.21-1.83,0.21 c-1.03,0-1.72-0.4-2.1-1.19c-0.37-0.8-0.56-2.11-0.56-3.95V52.26h6.48v-5.84h-6.48v-6.95l-6.9,1.96v4.99h-3.66v5.84h3.66v13.38 c0,2.87,0.57,4.93,1.73,6.18c1.15,1.26,2.95,1.88,5.39,1.88c1.31,0,2.6-0.16,3.87-0.48c1.27-0.32,2.39-0.71,3.34-1.17l-1.22-5.31 C330.61,67.03,330.03,67.24,329.52,67.39z M356.14,49.53c-1.03-1.22-2.32-2.17-3.87-2.84c-1.56-0.67-3.4-1.01-5.52-1.01 c-3.96,0-7.04,1.21-9.24,3.64c-2.19,2.42-3.29,5.88-3.29,10.38c0,2.09,0.26,4,0.77,5.73c0.51,1.73,1.29,3.21,2.34,4.43 c1.04,1.22,2.34,2.17,3.9,2.84c1.56,0.67,3.4,1.01,5.52,1.01c3.96,0,7.03-1.21,9.21-3.64c2.18-2.42,3.26-5.88,3.26-10.38 c0-2.09-0.26-4-0.77-5.73C357.93,52.22,357.16,50.75,356.14,49.53z M350.78,65.9c-0.88,1.31-2.23,1.96-4.03,1.96 c-0.96,0-1.78-0.2-2.47-0.61c-0.69-0.41-1.25-0.98-1.67-1.73c-0.42-0.74-0.74-1.61-0.96-2.6c-0.21-0.99-0.32-2.07-0.32-3.24 c0-2.9,0.48-4.99,1.43-6.26c0.96-1.27,2.28-1.91,3.98-1.91c1.95,0,3.33,0.75,4.14,2.26c0.81,1.5,1.22,3.48,1.22,5.92 C352.1,62.52,351.66,64.59,350.78,65.9z M375.88,45.84c-1.38,0-2.58,0.35-3.61,1.06c-1.03,0.71-1.84,1.72-2.44,3.03h-0.21 l-0.8-3.5h-5.36v26.54h6.9V55.81c0.28-1.03,0.84-1.87,1.67-2.52c0.83-0.65,1.87-0.98,3.1-0.98c0.88,0,1.88,0.19,2.97,0.58 l0.9-6.48C377.84,46.03,376.8,45.84,375.88,45.84z M200.76,106.95c-1.26-0.9-2.62-1.67-4.09-2.31c-1.47-0.64-2.83-1.26-4.09-1.86 c-1.26-0.6-2.3-1.26-3.13-1.96c-0.83-0.71-1.25-1.59-1.25-2.65c0-1.13,0.45-2.03,1.35-2.71c0.9-0.67,2.2-1.01,3.9-1.01 c1.8,0,3.48,0.2,5.04,0.61c1.56,0.41,2.72,0.86,3.5,1.35l2.28-6.1c-1.24-0.71-2.81-1.25-4.72-1.62c-1.91-0.37-3.95-0.56-6.1-0.56 c-1.88,0-3.57,0.21-5.1,0.64c-1.52,0.42-2.84,1.08-3.95,1.96c-1.11,0.88-1.97,1.99-2.57,3.32c-0.6,1.33-0.9,2.89-0.9,4.7 c0,2.09,0.42,3.8,1.25,5.15c0.83,1.35,1.88,2.47,3.13,3.37c1.26,0.9,2.62,1.66,4.09,2.28c1.47,0.62,2.83,1.22,4.09,1.8 c1.26,0.58,2.3,1.23,3.13,1.94c0.83,0.71,1.25,1.63,1.25,2.76c0,1.49-0.58,2.59-1.72,3.32c-1.15,0.73-2.8,1.09-4.96,1.09 c-0.92,0-1.81-0.07-2.68-0.21c-0.87-0.14-1.69-0.32-2.47-0.53c-0.78-0.21-1.48-0.44-2.1-0.69c-0.62-0.25-1.12-0.48-1.51-0.69 l-2.34,6.21c0.96,0.5,2.44,0.99,4.46,1.49c2.02,0.5,4.35,0.74,7.01,0.74c2.02,0,3.87-0.23,5.55-0.69 c1.68-0.46,3.11-1.17,4.3-2.12c1.19-0.96,2.1-2.15,2.76-3.58c0.65-1.43,0.98-3.14,0.98-5.12c0-1.98-0.42-3.64-1.25-4.96 C203.06,108.97,202.01,107.86,200.76,106.95z M224.56,120.22c-0.81,0.3-1.8,0.45-2.97,0.45c-1.06,0-1.99-0.2-2.79-0.61 c-0.8-0.41-1.44-0.96-1.94-1.67c-0.5-0.71-0.87-1.54-1.11-2.49c-0.25-0.96-0.37-2-0.37-3.13c0-2.76,0.49-4.77,1.49-6.02 c0.99-1.26,2.44-1.88,4.35-1.88c1.03,0,1.94,0.11,2.73,0.32c0.8,0.21,1.6,0.51,2.41,0.9l1.65-5.63c-0.96-0.5-2.03-0.9-3.21-1.22 c-1.19-0.32-2.75-0.48-4.7-0.48c-3.86,0-6.79,1.21-8.81,3.64c-2.02,2.42-3.03,5.88-3.03,10.38c0,2.09,0.2,4,0.61,5.73 c0.41,1.73,1.07,3.21,1.99,4.43c0.92,1.22,2.11,2.17,3.58,2.84c1.47,0.67,3.26,1.01,5.39,1.01c1.59,0,3.14-0.2,4.64-0.61 c1.5-0.41,2.79-1,3.85-1.78l-1.59-5.25C226.1,119.56,225.38,119.92,224.56,120.22z M253.36,101.04c-0.69-0.81-1.55-1.4-2.57-1.75 c-1.03-0.35-2.21-0.53-3.56-0.53c-1.91,0-3.49,0.34-4.72,1.01c-1.24,0.67-2.28,1.57-3.13,2.71h-0.21V88.88h-6.9v37.15h6.9V109.1 c0.32-1.24,0.96-2.26,1.94-3.05c0.97-0.8,2.04-1.19,3.21-1.19c1.59,0,2.69,0.48,3.29,1.43c0.6,0.96,0.9,2.51,0.9,4.67v15.07h6.9 v-16.51c0-2.05-0.17-3.78-0.5-5.17C254.56,102.96,254.05,101.85,253.36,101.04z M281.56,102.6c-1.03-1.22-2.32-2.17-3.87-2.84 c-1.56-0.67-3.4-1.01-5.52-1.01c-3.96,0-7.04,1.21-9.24,3.64c-2.19,2.42-3.29,5.88-3.29,10.38c0,2.09,0.26,4,0.77,5.73 c0.51,1.73,1.29,3.21,2.34,4.43c1.04,1.22,2.34,2.17,3.9,2.84c1.56,0.67,3.4,1.01,5.52,1.01c3.96,0,7.03-1.21,9.21-3.64 c2.18-2.42,3.26-5.88,3.26-10.38c0-2.09-0.26-4-0.77-5.73C283.36,105.3,282.59,103.82,281.56,102.6z M276.2,118.97 c-0.88,1.31-2.23,1.96-4.03,1.96c-0.96,0-1.78-0.2-2.47-0.61c-0.69-0.41-1.25-0.98-1.67-1.73c-0.42-0.74-0.74-1.61-0.96-2.6 c-0.21-0.99-0.32-2.07-0.32-3.24c0-2.9,0.48-4.99,1.43-6.26c0.96-1.27,2.28-1.91,3.98-1.91c1.95,0,3.33,0.75,4.14,2.26 c0.81,1.5,1.22,3.48,1.22,5.92C277.53,115.6,277.09,117.67,276.2,118.97z M309.8,102.6c-1.03-1.22-2.32-2.17-3.87-2.84 c-1.56-0.67-3.4-1.01-5.52-1.01c-3.96,0-7.04,1.21-9.24,3.64c-2.19,2.42-3.29,5.88-3.29,10.38c0,2.09,0.26,4,0.77,5.73 c0.51,1.73,1.29,3.21,2.34,4.43c1.04,1.22,2.34,2.17,3.9,2.84c1.56,0.67,3.4,1.01,5.52,1.01c3.96,0,7.03-1.21,9.21-3.64 c2.18-2.42,3.26-5.88,3.26-10.38c0-2.09-0.26-4-0.77-5.73C311.6,105.3,310.83,103.82,309.8,102.6z M304.44,118.97 c-0.88,1.31-2.23,1.96-4.03,1.96c-0.96,0-1.78-0.2-2.47-0.61c-0.69-0.41-1.25-0.98-1.67-1.73c-0.42-0.74-0.74-1.61-0.96-2.6 c-0.21-0.99-0.32-2.07-0.32-3.24c0-2.9,0.48-4.99,1.43-6.26c0.96-1.27,2.28-1.91,3.98-1.91c1.95,0,3.33,0.75,4.14,2.26 c0.81,1.5,1.22,3.48,1.22,5.92C305.77,115.6,305.32,117.67,304.44,118.97z M327.24,120.57c-0.41,0.07-0.82,0.11-1.25,0.11 c-0.71,0-1.22-0.28-1.54-0.85c-0.32-0.57-0.48-1.47-0.48-2.71V88.88h-6.9v31.85c0,2.16,0.53,3.71,1.59,4.64 c1.06,0.94,2.6,1.41,4.62,1.41c1.24,0,2.44-0.14,3.61-0.42c1.17-0.28,2.03-0.57,2.6-0.85l-0.74-5.41 C328.15,120.34,327.64,120.5,327.24,120.57z"></path> </g> </g> <g> <defs> <path id="SVGID_1_" d="M98.3,61.65C90.91,85.55,63.87,93.96,61.37,86.8c3.14,2.38,25.38-5.38,29.42-23.23 c2.35-10.39-3.71-22.06-24.83-15.81c-18.31,5.42-34.04,18.5-46.3,34.77c9.97-23.74,37.54-38.5,48.72-41.8 C86.98,35.25,104.01,43.2,98.3,61.65L98.3,61.65z M152.61,51.83c-5.34,17.56-27.54,47.36-67.12,62.16 c-45.16,16.89-50.68-9.05-43.74-25.2c4.81-11.21,13.73-21.27,24.04-25.51c9.39-3.86,12.76-2.55,12.76-2.55 c-2.25,0.55-5.13,1.14-13.36,6.1C56.87,71.84,50.58,79,47.92,89.44c-3.04,11.9,5.14,29.86,40.71,12.62 c55.3-26.81,57.4-67.93,57.45-74.96C153.58,28.27,156.64,38.57,152.61,51.83L152.61,51.83z M75.61,57.11 c-6.78,0.26-25.9,8.02-38.18,30.12c-12.07,21.74-4.39,48.62,23.61,50.08c18.75,0.97,39.24-5.84,57.33-18.42 c-19.3,20.66-41.25,28.89-63.56,28.66c-34.79-0.37-37.49-36.14-22.72-61.63c10.45-18.04,33.47-33.49,46.65-32.42 c14.47,1.18,6.02,16.65,4.2,18.67C84.47,68.38,88.1,56.63,75.61,57.11L75.61,57.11z M120.88,44.37 c-1.31,17.2-16.23,34.76-26.32,42.69c-8.73,6.87-22.04,14.45-32.98,13.48c-13.24-1.17-10.42-17.66-0.61-26.84 c-9.66,15.95-2.91,20.29,3.44,20.68c6,0.37,14.95-2,25.79-10.52C107.86,70,125.76,31.76,94.96,26 c-9.72-1.81-20.82,1.91-20.82,1.91c6.04-5.01,20.52-11.12,31.02-8.52C117.71,22.52,121.64,34.46,120.88,44.37L120.88,44.37z"></path> </defs> <defs> <path id="SVGID_2_" d="M132.95,101.97c-15.19,14.05-32.57,22.62-52.13,27.36c-37.47,9.09-47.02-14.93-45.02-25.54 c0,6.45,5.72,30.16,42.33,18.9c51.11-15.72,71.76-50.62,71.76-50.62C150.2,77.29,148.35,87.73,132.95,101.97L132.95,101.97z M116.37,76.41c-17.61,19.13-40.55,27.47-44.67,26.91c5.01-0.79,42.71-14.82,55.04-54.32c6.7-21.46-4.15-31.61-13.57-32.71 c7.95-2.71,15.42-1.77,20.12,2.13C142.51,26.07,139.5,51.29,116.37,76.41L116.37,76.41z M18.88,138.05 c-6.54-11.24,2.89-40.81,5.11-42.67c0,0-10.78,23.85,0.52,42.75c2.32,3.88,6.36,6.65,9.63,9.02 C27.3,146.65,22.52,144.31,18.88,138.05L18.88,138.05z M91.05,79.29c7-8.01,19.75-27.1,8.02-39.38 c-11.52-12.06-39.98-2.65-51.59,6.72c4.19-4.79,11.97-10.61,20.69-13.67c15.48-5.42,28.34-3.75,34.99,4.68 C112.41,49.37,100.99,70.03,91.05,79.29L91.05,79.29z M50.37,61.64c-31.42,24.01-37.08,48.25-37.39,62.57 c-3.75-6.55-4.34-19.3,6.79-35.78c7-10.36,18.5-22.23,30.06-29.56c15.27-9.69,26.45-9.96,28.83-9.06 C74.8,49.69,63.39,51.69,50.37,61.64L50.37,61.64z"></path> </defs> <use xlink:href="#SVGID_1_" style="overflow:visible;fill:#53AC4E;"></use> <use xlink:href="#SVGID_2_" style="overflow:visible;fill:#007DC5;"></use> <clipPath id="SVGID_3_"> <use xlink:href="#SVGID_1_" style="overflow:visible;"></use> </clipPath> <clipPath id="SVGID_4_" class="st1"> <use xlink:href="#SVGID_2_" style="overflow:visible;"></use> </clipPath> </g> </g> </svg> 